# xmcd
#
# Track frame offsets: 
#        150
#        20780
#        33944
#        46455
#        63002
#        80608
#        95700
#        111504
#        127291
#        141675
#        162256
#        178845
#        195815
#        208583
#        223139
#        236309
#        246336
#        262825
#        274755
#        289620
#        302933
#        322705
#
# Disc length: 4418 seconds
#
# Revision: 0
# Processed by: cddbd v1.5.1PL0 Copyright (c) Steve Scherf et al.
# Submitted via: ExactAudioCopy v0.90b4
#
DISCID=4c114016
DTITLE=Captain Beefheart - The Spotlight Kid - Clear Spot
DYEAR=1972
DGENRE=Rock
TTITLE0=I'm Gonna Booglarize You Baby
TTITLE1=White Jam
TTITLE2=Blabber 'N Smoke
TTITLE3=When It Blows Its Stacks
TTITLE4=Alice In Blunderland
TTITLE5=The Spotlight Kid
TTITLE6=Click Clack
TTITLE7=Grow Fins
TTITLE8=There Ain't No Santa Claus On The Evenin' Stage
TTITLE9=Glider
TTITLE10=Low Yo Yo Stuff
TTITLE11=Nowadays A Woman's Gotta Hit A Man
TTITLE12=Too Much Time
TTITLE13=Circumstances
TTITLE14=My Head Is My Only House Unless It Rains
TTITLE15=Sun Zoom Spark
TTITLE16=Clear Spot
TTITLE17=Crazy Little Thing
TTITLE18=Long Neck Bottles
TTITLE19=Her Eyes Are A Blue Million Million Miles
TTITLE20=Big Eyed Beans From Venus
TTITLE21=Golden Birdies
EXTD=
EXTT0=
EXTT1=
EXTT2=
EXTT3=
EXTT4=
EXTT5=
EXTT6=
EXTT7=
EXTT8=
EXTT9=
EXTT10=
EXTT11=
EXTT12=
EXTT13=
EXTT14=
EXTT15=
EXTT16=
EXTT17=
EXTT18=
EXTT19=
EXTT20=
EXTT21=
PLAYORDER=
